<?xml version="1.0" encoding="utf-8"?>
<!-- Generator: Adobe Illustrator 23.0.4, SVG Export Plug-In . SVG Version: 6.00 Build 0)  -->
<svg version="1.1" id="Layer_1" xmlns="http://www.w3.org/2000/svg" xmlns:xlink="http://www.w3.org/1999/xlink" x="0px" y="0px"
	 viewBox="0 0 434.3 435.7" style="enable-background:new 0 0 434.3 435.7;" xml:space="preserve">
<style type="text/css">
	.st0{opacity:0.19;fill:#68E1FD;enable-background:new    ;}
	.st1{fill:#68E1FD;}
	.st2{fill:url(#SVGID_1_);}
	.st3{fill:url(#SVGID_2_);}
	.st4{fill:url(#SVGID_3_);}
	.st5{fill:url(#SVGID_4_);}
	.st6{fill:url(#SVGID_5_);}
	.st7{fill:url(#SVGID_6_);}
	.st8{fill:url(#SVGID_7_);}
	.st9{fill:url(#SVGID_8_);}
	.st10{fill:url(#SVGID_9_);}
	.st11{fill:url(#SVGID_10_);}
	.st12{fill:url(#SVGID_11_);}
	.st13{fill:url(#SVGID_12_);}
	.st14{fill:url(#SVGID_13_);}
	.st15{fill:url(#SVGID_14_);}
	.st16{opacity:0.51;fill:url(#SVGID_15_);enable-background:new    ;}
	.st17{fill:url(#SVGID_16_);}
	.st18{fill:url(#SVGID_17_);}
	.st19{fill:url(#SVGID_18_);}
	.st20{fill:url(#SVGID_19_);}
	.st21{fill:url(#SVGID_20_);}
	.st22{opacity:0.36;fill:url(#SVGID_21_);enable-background:new    ;}
	.st23{fill:#F4E9A4;}
	.st24{fill:url(#SVGID_22_);}
	.st25{fill:url(#SVGID_23_);}
	.st26{fill:#72D000;}
	.st27{fill:url(#SVGID_24_);}
	.st28{fill:url(#SVGID_25_);}
	.st29{fill:url(#SVGID_26_);}
	.st30{fill:url(#SVGID_27_);}
	.st31{fill:url(#SVGID_28_);}
	.st32{fill:url(#SVGID_29_);}
	.st33{fill:url(#SVGID_30_);}
	.st34{fill:url(#SVGID_31_);}
	.st35{fill:url(#SVGID_32_);}
	.st36{opacity:0.36;fill:url(#SVGID_33_);enable-background:new    ;}
	.st37{opacity:0.36;fill:url(#SVGID_34_);enable-background:new    ;}
	.st38{fill:none;stroke:#000000;stroke-width:0.5;stroke-miterlimit:10;}
	.st39{fill:none;stroke:#000000;stroke-width:0.4;stroke-miterlimit:10;}
	.st40{fill:#FFFFFF;}
	.st41{fill:none;stroke:#000000;stroke-width:0.53;stroke-miterlimit:10;}
	.st42{fill:#25233A;}
	.st43{fill:url(#SVGID_35_);}
	.st44{fill:url(#SVGID_36_);}
	.st45{fill:url(#SVGID_37_);}
	.st46{fill:url(#SVGID_38_);}
	.st47{fill:url(#SVGID_39_);}
	.st48{fill:url(#SVGID_40_);}
	.st49{fill:url(#SVGID_41_);}
	.st50{fill:url(#SVGID_42_);}
	.st51{fill:url(#SVGID_43_);}
	.st52{fill:url(#SVGID_44_);}
	.st53{fill:url(#SVGID_45_);}
	.st54{fill:url(#SVGID_46_);}
	.st55{fill:url(#SVGID_47_);}
	.st56{fill:url(#SVGID_48_);}
	.st57{fill:url(#SVGID_49_);}
	.st58{fill:url(#SVGID_50_);}
	.st59{fill:url(#SVGID_51_);}
	.st60{fill:url(#SVGID_52_);}
</style>
<title>61. Lunch break</title>
<path class="st0" d="M132.9,67.5c-10.3,11-18.3,24-28.7,35c-16.2,17.2-37.6,28.6-56.9,42.4S9.9,176.6,4.7,199.7
	c-6.8,30.5,10.9,61,12.4,92.3c0.6,11.7-1.2,23.5-0.1,35.2c3.4,36,33.7,65,67.6,77.8s71.1,12.6,107.3,12.2l53.8-0.6
	c29.2-0.3,58.9-0.7,86.5-10.3s53-30.2,60.5-58.3c4.5-16.9,2.4-35.4,8.8-51.7c4.8-12.1,13.8-22.1,20.4-33.3
	c21-35.5,14.8-84.9-14.5-114c-11.9-11.8-27.9-22-31-38.5c-1.7-8.8,0.8-18.1-0.8-26.9c-3-15.9-18.6-26.5-34.2-30.8
	s-32.1-3.9-47.9-7.4c-19.1-4.3-36.4-14.3-55.3-19.6c-21.4-6.1-36.8-2.6-54.8,8.4C166,44.8,147.5,52,132.9,67.5z"/>
<polygon class="st1" points="247.5,96.3 249.6,96.9 251.4,101.4 247.5,98.5 "/>
<linearGradient id="SVGID_1_" gradientUnits="userSpaceOnUse" x1="250.7214" y1="339.6684" x2="248.9514" y2="338.1484" gradientTransform="matrix(1 0 0 -1 0 438)">
	<stop  offset="0" style="stop-color:#000000;stop-opacity:0"/>
	<stop  offset="0.68" style="stop-color:#000000;stop-opacity:0.55"/>
	<stop  offset="0.88" style="stop-color:#000000;stop-opacity:0.8"/>
	<stop  offset="0.97" style="stop-color:#000000"/>
</linearGradient>
<polygon class="st2" points="248.4,99 249.6,96.9 250.9,100.6 "/>
<linearGradient id="SVGID_2_" gradientUnits="userSpaceOnUse" x1="211.615" y1="100.0003" x2="226.255" y2="-153.3997" gradientTransform="matrix(1 0 0 -1 0 417.06)">
	<stop  offset="0" style="stop-color:#000000;stop-opacity:0"/>
	<stop  offset="0.8" style="stop-color:#000000;stop-opacity:0.63"/>
	<stop  offset="0.88" style="stop-color:#000000;stop-opacity:0.8"/>
	<stop  offset="0.97" style="stop-color:#000000"/>
</linearGradient>
<path class="st3" d="M26.9,393.7c-6.5,0.9-13.3,2-18.9,5.6s-9.5,10.6-7.5,16.8c2.1,6.7,9.9,10,16.9,10s13.8-2.2,20.8-2.9
	c13.1-1.2,25.8,3.6,38.6,6.6c21.3,5,43.4,5.2,65.3,5.4c79.1,0.7,158.6,1.4,237.1-8.6c15.7-2,31.5-4.5,45.9-11.1
	c5.1-2.4,10.9-7.8,8.1-12.7c-1-1.5-2.5-2.7-4.2-3.5c-10.5-5.2-23.1-2.9-34.8-4.1s-25-9.6-23.3-21.2c-18.9-9.5-41.4-1.3-61.7,4.7
	c-46.8,14-96.1,15.9-144.6,13.3c-24.1-1.3-48-4.1-71.9-6.3C71.2,383.8,48.3,390.6,26.9,393.7z"/>
<linearGradient id="SVGID_3_" gradientUnits="userSpaceOnUse" x1="235.3781" y1="94.8149" x2="125.0081" y2="-173.2251" gradientTransform="matrix(1 0 0 -1 0 417.06)">
	<stop  offset="0" style="stop-color:#A45326"/>
	<stop  offset="0.42" style="stop-color:#EFD4D1"/>
	<stop  offset="1" style="stop-color:#F2EAC9"/>
</linearGradient>
<path class="st4" d="M89,351.2c0,0-19.3,1.5-13.7,25s24.7,36.9,67.7,41.8s150.7,2.1,195.8-16.6c0,0,20.5-9.5,16.7-36.9
	C349.5,320,116.2,326.4,89,351.2z"/>
<linearGradient id="SVGID_4_" gradientUnits="userSpaceOnUse" x1="208.2431" y1="-3.42" x2="208.2431" y2="82.74" gradientTransform="matrix(1 0 0 -1 0 417.06)">
	<stop  offset="0" style="stop-color:#000000;stop-opacity:0"/>
	<stop  offset="0.88" style="stop-color:#000000;stop-opacity:0.8"/>
	<stop  offset="0.97" style="stop-color:#000000"/>
</linearGradient>
<path class="st5" d="M78.2,360.1c0,0,43.4,52.4,222.7,23.9c0,0,46.2-13.3,35.9-28.4S119.1,331.2,78.2,360.1z"/>
<linearGradient id="SVGID_5_" gradientUnits="userSpaceOnUse" x1="219.2815" y1="104.4196" x2="142.1315" y2="-163.0604" gradientTransform="matrix(1 0 0 -1 0 417.06)">
	<stop  offset="0" style="stop-color:#A45326"/>
	<stop  offset="0.42" style="stop-color:#EFD4D1"/>
	<stop  offset="1" style="stop-color:#F2EAC9"/>
</linearGradient>
<path class="st6" d="M137.7,363.7l3.5,13.9c0,0,76.9,14.8,123.5-1.8l7.3-14.3c0,0-54-14.9-64.1-20.6l-1.4-9.2L202,334
	C202,334,188.9,354.2,137.7,363.7z"/>
<linearGradient id="SVGID_6_" gradientUnits="userSpaceOnUse" x1="207.6379" y1="87.4906" x2="130.4879" y2="-179.9894" gradientTransform="matrix(1 0 0 -1 0 417.06)">
	<stop  offset="0" style="stop-color:#A45326"/>
	<stop  offset="0.42" style="stop-color:#EFD4D1"/>
	<stop  offset="1" style="stop-color:#F2EAC9"/>
</linearGradient>
<path class="st7" d="M134.8,350.3l3.5,13.9c0,0,76.9,14.8,123.5-1.8l7.3-14.3c0,0-54-14.9-64.2-20.6l-1.4-9.2l-4.5,2.2
	C199.1,320.6,186.1,340.8,134.8,350.3z"/>
<linearGradient id="SVGID_7_" gradientUnits="userSpaceOnUse" x1="161.7898" y1="75.0417" x2="234.73" y2="75.0417" gradientTransform="matrix(1 0 0 -1 0 417.06)">
	<stop  offset="0" style="stop-color:#000000;stop-opacity:0"/>
	<stop  offset="0.88" style="stop-color:#000000;stop-opacity:0.8"/>
	<stop  offset="0.97" style="stop-color:#000000"/>
</linearGradient>
<path class="st8" d="M167.4,357.5c11.2-1.7,22.1-5.3,32.1-10.8c11.1,5,23.1,7.5,35.3,7.2L221.8,338c-2.8-3.4-5.6-6.9-9.1-9.5
	c-2-1.5-4.4-2.6-6.8-2.3c-1.4,0.3-2.8,0.9-4,1.7c-8,4.8-15.8,10-23.4,15.5c-3.8,2.8-7.6,5.6-11.3,8.5c-0.9,0.7-5.4,3.4-5.4,4.5
	C161.9,358.6,166.1,357.6,167.4,357.5z"/>
<linearGradient id="SVGID_8_" gradientUnits="userSpaceOnUse" x1="75.66" y1="72.7681" x2="202" y2="72.7681" gradientTransform="matrix(1 0 0 -1 0 417.06)">
	<stop  offset="0" style="stop-color:#A45326"/>
	<stop  offset="0.42" style="stop-color:#EFD4D1"/>
	<stop  offset="1" style="stop-color:#F2EAC9"/>
</linearGradient>
<path class="st9" d="M75.7,343l2.5,17.1c0,0,10.8,10.1,48.4,5.3S191,349.5,202,334l-91.2-12C110.8,321.9,75.9,330.8,75.7,343z"/>
<linearGradient id="SVGID_9_" gradientUnits="userSpaceOnUse" x1="154.6421" y1="104.2284" x2="85.9421" y2="32.5284" gradientTransform="matrix(1 0 0 -1 0 417.06)">
	<stop  offset="0" style="stop-color:#A45326"/>
	<stop  offset="0.42" style="stop-color:#EFD4D1"/>
	<stop  offset="1" style="stop-color:#F2EAC9"/>
</linearGradient>
<path class="st10" d="M82.7,331.9c-3.1,1.7-6.3,3.8-7.2,7.2c-0.7,2.9,0.7,6,2.9,8.1c2.3,1.9,5.1,3.3,8,4c11.7,3.4,24,2.8,36.2,2.3
	c11.7-0.5,23.6-1.1,34.9-4.2c8.1-2.2,15.9-5.8,23.6-9.2c3.3-1.5,6.7-3.1,8.5-6.2l-49.7-4c-4.2-0.2-8.3-0.8-12.4-1.8
	c-3.8-1.1-7.4-3-11.2-4.2c-5.1-1.8-11.8-3.5-16.8-0.8C93.9,326,88.2,328.9,82.7,331.9z"/>
<linearGradient id="SVGID_10_" gradientUnits="userSpaceOnUse" x1="130.6828" y1="96.5208" x2="128.4328" y2="22.1908" gradientTransform="matrix(1 0 0 -1 0 417.06)">
	<stop  offset="0" style="stop-color:#A45326"/>
	<stop  offset="0.42" style="stop-color:#EFD4D1"/>
	<stop  offset="1" style="stop-color:#F2EAC9"/>
</linearGradient>
<path class="st11" d="M105.1,321.9c0,0-26.6,10.6-21,16.9s53.7,13.2,93-6.5l-6.6-1.1c0,0-27.1,16.4-72,9.8c0,0-18.7-2-8.5-8.7
	s26.2-8.6,26.2-8.6S111,319.3,105.1,321.9z"/>
<linearGradient id="SVGID_11_" gradientUnits="userSpaceOnUse" x1="132.1086" y1="96.4801" x2="129.8585" y2="22.15" gradientTransform="matrix(1 0 0 -1 0 417.06)">
	<stop  offset="0" style="stop-color:#A45326"/>
	<stop  offset="0.42" style="stop-color:#EFD4D1"/>
	<stop  offset="1" style="stop-color:#F2EAC9"/>
</linearGradient>
<path class="st12" d="M154.3,332.3c0,0-27.7,11-43.1,5.4s11.2-11.6,11.2-11.6l3.5,0.9c0,0-13.3,1.6-15.1,5.7s14.6,5.1,22.6,2.9
	s18.3-5.5,18.3-5.5l5.5,1L154.3,332.3z"/>
<linearGradient id="SVGID_12_" gradientUnits="userSpaceOnUse" x1="142.8376" y1="62.9333" x2="170.4377" y2="130.1333" gradientTransform="matrix(1 0 0 -1 0 417.06)">
	<stop  offset="0" style="stop-color:#000000;stop-opacity:0"/>
	<stop  offset="0.88" style="stop-color:#000000;stop-opacity:0.8"/>
	<stop  offset="0.97" style="stop-color:#000000"/>
</linearGradient>
<path class="st13" d="M183.9,338.1c4.6,0.2,9.6,0.3,13.1-2.6c0.5-0.4,0.9-1,1-1.6c0.1-1.1-1.1-1.8-2.1-2.2
	c-17-7.1-34.5-14.3-52.9-15.3c-6.2-0.3-39.1-3.7-33.6,9.7c2,4.9,12.4,8.8,16.9,9c9.2,0.4,18.4,0.9,27.6,1.4
	C164,337.1,174,338.1,183.9,338.1z"/>
<linearGradient id="SVGID_13_" gradientUnits="userSpaceOnUse" x1="327.3478" y1="102.3349" x2="146.0178" y2="21.9949" gradientTransform="matrix(1 0 0 -1 0 417.06)">
	<stop  offset="0" style="stop-color:#A45326"/>
	<stop  offset="0.42" style="stop-color:#EFD4D1"/>
	<stop  offset="1" style="stop-color:#F2EAC9"/>
</linearGradient>
<path class="st14" d="M206.5,331.8l1.4,9.2c0,0,48.1,25.7,87.7,20.8s60.4-17.2,62-24s3.3-21.3,3.3-21.3l-21.7-13.7L213,323.7
	L206.5,331.8z"/>
<linearGradient id="SVGID_14_" gradientUnits="userSpaceOnUse" x1="212.49" y1="91.8144" x2="361.0103" y2="91.8144" gradientTransform="matrix(1 0 0 -1 0 417.06)">
	<stop  offset="0" style="stop-color:#A45326"/>
	<stop  offset="0.42" style="stop-color:#EFD4D1"/>
	<stop  offset="1" style="stop-color:#F2EAC9"/>
</linearGradient>
<path class="st15" d="M212.5,329.2c0,0,49.5,21.2,89.4,16.4s60-21.6,59.1-29.2s-18.4-12.2-18.4-12.2s-128.9,13.9-129.5,19.5
	L212.5,329.2z"/>
<linearGradient id="SVGID_15_" gradientUnits="userSpaceOnUse" x1="286.8499" y1="61.5153" x2="245.2699" y2="149.8753" gradientTransform="matrix(1 0 0 -1 0 417.06)">
	<stop  offset="0" style="stop-color:#000000;stop-opacity:0"/>
	<stop  offset="0.88" style="stop-color:#000000;stop-opacity:0.8"/>
	<stop  offset="0.97" style="stop-color:#000000"/>
</linearGradient>
<path class="st16" d="M228.2,334c19.6-3.2,54.3-3.7,73.7-8.1c11.1-2.5,21.6-6.9,32-11.5c2.3-0.9,4.5-2.1,6.4-3.7
	c1.9-1.6,2.9-4.1,2.7-6.6c-0.1-0.7-0.4-1.3-0.9-1.7c-0.5-0.3-1-0.4-1.6-0.3c-30.8-0.7-61.7,1.5-92.1,6.4
	c-9.2,1.5-51.2,12.4-52.3,24.6c-0.4,4.4,14.8,8.9,18.6,11.1C221.2,348,221.8,335.1,228.2,334z"/>
<linearGradient id="SVGID_16_" gradientUnits="userSpaceOnUse" x1="284.6142" y1="317.7585" x2="245.9442" y2="284.7184" gradientTransform="matrix(1 0 0 -1 0 417.06)">
	<stop  offset="0" style="stop-color:#A45326"/>
	<stop  offset="0.42" style="stop-color:#EFD4D1"/>
	<stop  offset="1" style="stop-color:#F2EAC9"/>
</linearGradient>
<path class="st17" d="M276,98.1c-0.4,0-0.9,0.2-1.2,0.5c-0.3,0.3-0.5,0.8-0.3,1.2c-0.4-0.2-0.9,0.2-1,0.7s-0.3,1-0.8,1.1
	c-0.2,0-0.4,0.1-0.5,0.2c-0.4,0.2-0.3,0.8-0.5,1.2c-0.3,0.6-1.1,0.8-1.5,1.4c-0.2,0.3-0.2,0.7-0.2,1c0.2,1.4,1,2.7,2.3,3.4
	c1.2,0.7,2.6,1.2,4,1.4l3.6,0.9c0.7,0.3,1.6,0.1,2.1-0.6c1.4-1.5,2.9-3.1,2.9-5.2c0-1.4-0.6-2.8-1.6-3.8
	C281.5,99.7,278.8,97.6,276,98.1z"/>
<linearGradient id="SVGID_17_" gradientUnits="userSpaceOnUse" x1="270.97" y1="314.3966" x2="277.89" y2="314.3966" gradientTransform="matrix(1 0 0 -1 0 417.06)">
	<stop  offset="0" style="stop-color:#000000;stop-opacity:0"/>
	<stop  offset="0.68" style="stop-color:#000000;stop-opacity:0.55"/>
	<stop  offset="0.88" style="stop-color:#000000;stop-opacity:0.8"/>
	<stop  offset="0.97" style="stop-color:#000000"/>
</linearGradient>
<path class="st18" d="M271.8,104.4c0.1,0.2,0.2,0.4,0.4,0.6c0.1,0.2,0.3,0.4,0.5,0.4c0.2,0,0.4,0,0.6-0.1c0.9-0.2,1.8-0.6,2.5-1.2
	c0,0,0.1,0,0.1-0.1c0-0.1,0-0.1,0-0.2c-0.2-0.5-0.1-1.1,0.3-1.5c0.2-0.2,0.4-0.3,0.6-0.4l1-0.5c0,0,0.1,0,0.1-0.1c0,0,0-0.1,0-0.1
	c-0.1-0.2-0.2-0.4-0.5-0.4c-0.2,0-0.4-0.1-0.6-0.1c-0.4,0-0.8-0.1-1.2-0.1c-0.2,0-0.4-0.1-0.5-0.2c-0.1-0.1-0.1-0.2-0.2-0.3
	c-0.1-0.1-0.2-0.3-0.4-0.3c-0.1,0-0.2,0-0.3,0c-0.1,0.1-0.1,0.2-0.1,0.3c0,0.1,0.1,0.2,0.2,0.3l1.6,1.8c0.1,0.1,0.1,0.1,0.1,0.2
	c0,0.2-0.2,0.2-0.4,0.3c-0.2,0.1-0.5,0.1-0.8,0c-0.5-0.2-0.8-0.8-1.3-1c-0.1-0.1-0.3-0.1-0.4-0.1c-0.1,0-0.3,0.2-0.4,0.2
	s-0.4,0-0.4,0.1c0,0.1,0,0.1,0,0.2c0.4,0.5,0.8,1,1.2,1.4c0,0.1,0.1,0.1,0.1,0.2c0,0.2-0.1,0.3-0.3,0.3c-0.2,0-0.3,0-0.5,0
	c-0.3-0.1-0.6-0.3-0.9-0.5c-0.1-0.1-0.2-0.2-0.3-0.2c-0.2,0-0.3,0-0.5,0.1c-0.1,0.1-0.2,0.2-0.3,0.3
	C271.3,104,271.6,104.1,271.8,104.4z"/>
<path class="st1" d="M254.1,107.5l-1.6-4.2l15,13.6l8.5-10.9l9.1,0.9l-12.9,22.8c0,0-3.7,3.4-7.7,1.2s-13.2-17.6-13.2-17.6
	L254.1,107.5z"/>
<linearGradient id="SVGID_18_" gradientUnits="userSpaceOnUse" x1="271.1926" y1="305.5757" x2="256.1726" y2="296.5657" gradientTransform="matrix(1 0 0 -1 0 417.06)">
	<stop  offset="0" style="stop-color:#000000;stop-opacity:0"/>
	<stop  offset="0.68" style="stop-color:#000000;stop-opacity:0.55"/>
	<stop  offset="0.88" style="stop-color:#000000;stop-opacity:0.8"/>
	<stop  offset="0.97" style="stop-color:#000000"/>
</linearGradient>
<path class="st19" d="M254.1,107.5l-1.3-3.9l14.7,13.2l8.5-10.9l9.1,0.9l-12.9,22.8c0,0-3.7,3.4-7.7,1.2s-13.2-17.6-13.2-17.6
	L254.1,107.5z"/>
<linearGradient id="SVGID_19_" gradientUnits="userSpaceOnUse" x1="247.5599" y1="326.0022" x2="239.6299" y2="325.5822" gradientTransform="matrix(1 0 0 -1 0 417.06)">
	<stop  offset="0" style="stop-color:#ECC4D7"/>
	<stop  offset="0.42" style="stop-color:#EFD4D1"/>
	<stop  offset="1" style="stop-color:#F2EAC9"/>
</linearGradient>
<path class="st20" d="M239.8,83.4l-2.3,16.2l10.3-0.8l-0.3-6.4C247.5,92.4,242.6,87.2,239.8,83.4z"/>
<linearGradient id="SVGID_20_" gradientUnits="userSpaceOnUse" x1="280.59" y1="118.8026" x2="556.0552" y2="118.8026" gradientTransform="matrix(1 0 0 -1 0 417.06)">
	<stop  offset="0" style="stop-color:#A45326"/>
	<stop  offset="0.42" style="stop-color:#EFD4D1"/>
	<stop  offset="1" style="stop-color:#F2EAC9"/>
</linearGradient>
<path class="st21" d="M88.1,269.3c-3.8,1.7-7.8,3.5-10.1,7c-2.5,3.6-2.6,8.4-2.6,12.8c0,7.4,0.1,15.2,3.8,21.5
	c6.1,10.2,19.4,13.1,31.3,13.6c5,0.2,10,0.1,14.8,1.7c2.5,0.8,4.9,2,7.4,2.8c6.1,1.9,12.6,1.3,19,1.4c10.3,0.2,20.4,2.5,30.7,3.5
	s21,0.5,30.1-4.3c2.7-1.4,5.2-3.2,8.1-4.2s6.3-0.9,9.5-0.8c38.4,0.7,76.6-6.2,112.5-20.1c1.2-0.4,2.2-1,3.1-1.8c1-1.1,1.6-2.4,2-3.8
	c2.9-8.6,5.5-19.2-0.7-26c-1.5-1.7-3.5-2.9-4.8-4.7c-0.7-1.1-1.5-2.1-2.4-3c-1.6-1.2-3.9-1.1-6-0.9c-52.5,4.9-105.3,5.5-157.9,1.7
	c-0.7-0.2-1.4,0-2,0.4c-0.5,0.5-0.2,1.6,0.5,1.5c-15,0-30-1.7-45-3.4l-8.4-1c-5.6-0.6-11.4-1.3-17.1-0.3S93.2,267.1,88.1,269.3z"/>
<linearGradient id="SVGID_21_" gradientUnits="userSpaceOnUse" x1="215.4271" y1="184.6902" x2="214.8571" y2="95.1602" gradientTransform="matrix(1 0 0 -1 0 417.06)">
	<stop  offset="0" style="stop-color:#000000;stop-opacity:0"/>
	<stop  offset="0.91" style="stop-color:#000000;stop-opacity:0.8"/>
	<stop  offset="1" style="stop-color:#000000"/>
</linearGradient>
<path class="st22" d="M90,275.6c9.9,3.4,19.9,6.8,30.4,7.8c2.3,0.2,4.5,0.3,6.8,0.4l8.4,0.4l20.1,1l36.4,1.7
	c-1.2-1.1-3.1-1.1-4.2,0.1c0,0-0.1,0.1-0.1,0.1l58.9,1.4c8.2,0.2,16.5,0.4,24.6-0.8c7.6-1.2,15.1-3.6,22.9-3.7
	c5-0.1,9.9,0.7,14.9,0.5c7.8-0.4,15.2-3.3,22.5-6.2l-4-4.5c4.3,0.4,8.6,0.2,12.8-0.7c-3.1-5.3-10.4-5.8-16.6-5.6l-154,3.4
	c-17.8,0.4-35.8,0.8-53.1-3.3c-4-1-8.1-2.1-12.2-2.1C98.7,265.4,91.5,269.6,90,275.6z"/>
<path class="st23" d="M180.2,281.4l72.5,30.8l67.7-37.2c0,0-83.1,0.3-91.6,1.7s-42.8-1.7-42.8-1.7l-14.1,2.5L180.2,281.4z"/>
<linearGradient id="SVGID_22_" gradientUnits="userSpaceOnUse" x1="256.2643" y1="120.4021" x2="192.6343" y2="248.7921" gradientTransform="matrix(1 0 0 -1 0 417.06)">
	<stop  offset="0" style="stop-color:#000000;stop-opacity:0"/>
	<stop  offset="1" style="stop-color:#000000"/>
</linearGradient>
<path class="st24" d="M180.2,277l72.5,30.8l67.7-32.8c0,0-83.1,0.3-91.6,1.7s-42.8-1.7-42.8-1.7l-14.1,2.5L180.2,277z"/>
<linearGradient id="SVGID_23_" gradientUnits="userSpaceOnUse" x1="247.0139" y1="128.1199" x2="249.2739" y2="194.9399" gradientTransform="matrix(1 0 0 -1 0 417.06)">
	<stop  offset="0" style="stop-color:#000000;stop-opacity:0"/>
	<stop  offset="0.88" style="stop-color:#000000;stop-opacity:0.8"/>
	<stop  offset="0.97" style="stop-color:#000000"/>
</linearGradient>
<path class="st25" d="M307.5,279.8c-5.5,0.8-11.1,0.2-16.7,0.3c-6.2,0.1-36.1,2.2-42.3,2.9c-30.1,3.2-36.9-3-67.2-2
	c-1.1,0.1-2.1,0-3.1-0.3c-2.6-1-3.1-4.8-1.6-7.2s4.4-3.5,7.1-4.1c3.5-0.6,7-0.9,10.6-0.8c38.3-0.5,76.7,0.1,115,1.7
	c2.4,0.1,10.6-0.8,10,3.7C318.8,277.6,310.2,279.4,307.5,279.8z"/>
<path class="st26" d="M73.7,254c-0.3,3.6,2.2,7.1,5.3,8.9s6.9,2.3,10.6,2.5c4.6,0.2,10,0.2,12.6,4c1.1,1.6,1.4,3.6,2.8,5
	c4.1,4.2,10.9-1.8,16.7-1.2c5.2,0.6,8.4,6.3,13.4,7.9c8.9,2.8,17.1-8.8,26.3-7.4c3.7,0.6,6.9,3.2,10.6,3.7c4.7,0.7,9.3-2.1,14.1-2.5
	c5.6-0.5,11,2.2,16.5,3.4c8.7,1.8,20.7,1.8,29.4,0.5c30.3-4.5,58.1-0.4,88.5-3.9c3.1-0.4,6.4-0.9,9-2.6c3.2-2.1,5.1-5.9,8.4-7.9
	c7.4-4.6,18.4,1.2,25.2-4.2c1-0.7,1.7-1.8,1.9-3c0.5-4.3-7.3-5.4-7.6-9.6c-0.1-1.5,0.8-2.9,0.6-4.4c-0.3-2-2.5-3-4.3-3.7
	c-21.6-7.8-45.1-7.8-68.1-7.8c-31.1,0-62.3,0-93.4,0.1l-47.4,0.1h-23c-6.3,0-14.6-1.4-20.6,0.9c-4.9,1.9-8.7,6.5-13.3,8.9
	C82.4,244.6,74.2,246.8,73.7,254z"/>
<linearGradient id="SVGID_24_" gradientUnits="userSpaceOnUse" x1="222.0004" y1="136.7798" x2="221.4404" y2="211.4599" gradientTransform="matrix(1 0 0 -1 0 417.06)">
	<stop  offset="0" style="stop-color:#000000;stop-opacity:0"/>
	<stop  offset="0.88" style="stop-color:#000000;stop-opacity:0.8"/>
	<stop  offset="0.97" style="stop-color:#000000"/>
</linearGradient>
<path class="st27" d="M78.7,250.6c-0.3,3.6,2.2,7.1,5.3,8.9s6.9,2.3,10.6,2.5c4.6,0.2,10,0.2,12.6,4c1.1,1.6,1.4,3.6,2.8,5
	c4.1,4.2,5.8,1.5,11.6,2.1c5.2,0.6,8.4,6.3,13.4,7.9c8.9,2.8,16.8-15,26-13.6c3.7,0.6,6.9,3.2,10.6,3.7c4.7,0.7,9.3-2,14.1-2.5
	c5.6-0.5,11.3,8.5,16.8,9.6c8.7,1.8,20.7,1.8,29.4,0.5c30.3-4.5,51.3-4.9,81.7-8.4c3.1-0.4,6.4-0.9,9-2.6c3.2-2.1,5.1-5.9,8.4-7.9
	c7.4-4.6,25.2,5.7,32.1,0.3c1-0.7,1.7-1.8,1.9-3c0.5-4.3-7.3-5.4-7.6-9.6c-0.1-1.5,0.8-2.9,0.6-4.4c-0.3-2-2.5-3-4.3-3.7
	c-21.6-7.8-45.1-7.8-68.1-7.8c-31.1,0-62.3,0-93.4,0.1l-47.4,0.1h-23c-6.3,0-14.6-1.4-20.6,0.9c-4.9,1.9-8.7,6.5-13.3,8.9
	C82.4,244.6,79.2,243.5,78.7,250.6z"/>
<linearGradient id="SVGID_25_" gradientUnits="userSpaceOnUse" x1="127.2138" y1="164.6767" x2="312.3898" y2="164.6767" gradientTransform="matrix(1 0 0 -1 0 417.06)">
	<stop  offset="0" style="stop-color:#000000;stop-opacity:0"/>
	<stop  offset="0.88" style="stop-color:#000000;stop-opacity:0.8"/>
	<stop  offset="0.97" style="stop-color:#000000"/>
</linearGradient>
<path class="st28" d="M146.5,253.7c24.7,2.1,50.4-3.6,73.8,4.5c7.2,2.5,14.2,6.3,21.8,7.1c7.4,0.8,14.8-1.2,22.2-1.8
	c11-0.9,22,1.3,33.1,1.6c1.6,0.1,3.2-0.1,4.7-0.6c1.5-0.6,2.5-2.2,2.3-3.8c-0.4-2.3-3.5-3.5-3.6-5.9c-0.1-1.9,1.9-3.3,3.8-3.7
	s3.9-0.3,5.6-1.1s2.9-3.3,1.6-4.7c-0.9-0.7-2-1-3.1-0.9c-4.6-0.1-9.3,0-13.9,0c-46.8,0.5-93.5-0.8-140.2-4
	c-5.3-0.4-24.6-3.8-27.1,2.8C124.7,250.6,142.2,253.3,146.5,253.7z"/>
<linearGradient id="SVGID_26_" gradientUnits="userSpaceOnUse" x1="103.0981" y1="157.1993" x2="109.2881" y2="-33.1307" gradientTransform="matrix(1 0 0 -1 0 417.06)">
	<stop  offset="0" style="stop-color:#000000;stop-opacity:0"/>
	<stop  offset="0.91" style="stop-color:#000000;stop-opacity:0.8"/>
	<stop  offset="1" style="stop-color:#000000"/>
</linearGradient>
<path class="st29" d="M98.9,287.4c-1,1.5-1.2,3.5-0.6,5.2c0.5,1.4,1.5,2.5,1.6,4c0.1,1.6-1.2,3-1.4,4.6c-0.1,1.8,0.5,3.7,1.9,4.9
	c1.2,1.3,2.8,2.4,4,3.7c0.7,0.8,1.4,1.4,2.3,2c0.9,0.6,2,0.5,2.8-0.2c0.4-0.5,0.6-1,0.7-1.6c0.4-2,0.6-4.1,0.5-6.2
	c0-1.1-0.2-2.2-0.7-3.3c-0.7-1.5-2-2.5-2.9-3.8s-1.3-3.3-0.2-4.4c0.8-0.9,2.6-1.5,2.3-2.7c-0.2-0.7-0.9-1-1.5-1.4
	c-0.9-0.8-1.3-2.1-0.9-3.2C103.9,284,100.7,285,98.9,287.4z"/>
<linearGradient id="SVGID_27_" gradientUnits="userSpaceOnUse" x1="135.7504" y1="158.27" x2="141.9503" y2="-32.07" gradientTransform="matrix(1 0 0 -1 0 417.06)">
	<stop  offset="0" style="stop-color:#000000;stop-opacity:0"/>
	<stop  offset="0.91" style="stop-color:#000000;stop-opacity:0.8"/>
	<stop  offset="1" style="stop-color:#000000"/>
</linearGradient>
<path class="st30" d="M138.9,311.1c0.5,0.6,1.1,1,1.8,1.3c0.7,0.3,1.5,0,1.9-0.7c0.6-1.5-3.2-6.2-3.6-8.1c-0.5-2.3,0.7-5.2-2.2-4.9
	c-2.2,0.2-5.3,3.4-4.7,5.4S137.3,309.5,138.9,311.1z"/>
<linearGradient id="SVGID_28_" gradientUnits="userSpaceOnUse" x1="326.1297" y1="164.4593" x2="332.3197" y2="-25.8707" gradientTransform="matrix(1 0 0 -1 0 417.06)">
	<stop  offset="0" style="stop-color:#000000;stop-opacity:0"/>
	<stop  offset="0.91" style="stop-color:#000000;stop-opacity:0.8"/>
	<stop  offset="1" style="stop-color:#000000"/>
</linearGradient>
<path class="st31" d="M321.1,296.1c-0.4,0.3-0.7,0.6-0.9,1.1c-0.2,0.5-0.3,1.1-0.3,1.6c-0.3,2.4-2.2,4.1-4,5.7
	c3.9,0.3,7.9-0.1,11.7-1.4c0.8-0.2,1.5-0.6,2.1-1.1c0.4-0.4,0.7-0.9,1-1.4c2-2.5,5.7-2.3,8.5-3.8c0.1-0.1,0.3-0.2,0.4-0.4
	c0-0.1,0-0.2,0-0.3C336.5,287,325.9,292.1,321.1,296.1z"/>
<linearGradient id="SVGID_29_" gradientUnits="userSpaceOnUse" x1="204.5081" y1="160.4999" x2="210.7081" y2="-29.83" gradientTransform="matrix(1 0 0 -1 0 417.06)">
	<stop  offset="0" style="stop-color:#000000;stop-opacity:0"/>
	<stop  offset="0.91" style="stop-color:#000000;stop-opacity:0.8"/>
	<stop  offset="1" style="stop-color:#000000"/>
</linearGradient>
<path class="st32" d="M206.9,315.2c-3.4-0.7-6.8,1.5-7.6,4.9c3.8-0.2,7.5-1.1,11-2.6c1.4-0.5,2.5-1.4,3.4-2.6
	c-2.2-0.8-4.7-0.9-7-0.3"/>
<linearGradient id="SVGID_30_" gradientUnits="userSpaceOnUse" x1="178.5068" y1="159.6589" x2="184.6968" y2="-30.6811" gradientTransform="matrix(1 0 0 -1 0 417.06)">
	<stop  offset="0" style="stop-color:#000000;stop-opacity:0"/>
	<stop  offset="0.91" style="stop-color:#000000;stop-opacity:0.8"/>
	<stop  offset="1" style="stop-color:#000000"/>
</linearGradient>
<path class="st33" d="M180,307.2c-1.7-0.7-3.5-1-5.3-0.9c-0.5,0-0.9,0.2-1.2,0.6c-0.2,0.3-0.2,0.7-0.2,1c0.3,1.7,2.2,2.7,3.9,2.9
	s3.5,0,5.1,0.7c1,0.4,2.2,1.2,3.1,0.5c0.4-0.4,0.6-1,0.9-1.5c0.2-0.2,0.4-0.4,0.7-0.6C184.7,309,182.4,308.1,180,307.2z"/>
<linearGradient id="SVGID_31_" gradientUnits="userSpaceOnUse" x1="283.8264" y1="163.0812" x2="290.0263" y2="-27.2488" gradientTransform="matrix(1 0 0 -1 0 417.06)">
	<stop  offset="0" style="stop-color:#000000;stop-opacity:0"/>
	<stop  offset="0.91" style="stop-color:#000000;stop-opacity:0.8"/>
	<stop  offset="1" style="stop-color:#000000"/>
</linearGradient>
<path class="st34" d="M283.4,296.2c-1.5,0.3-2.8,1-3.9,2c-1,1.1-1.2,3.1,0,4s2.9,0.4,4.2-0.2l6.9-3c0.4-0.1,0.7-0.3,1-0.6
	c0.5-0.6,0.5-1.5,0-2.2c-0.5-0.6-1.2-1-2-1.2c-1.9-0.6-4-0.5-5.9,0.1"/>
<linearGradient id="SVGID_32_" gradientUnits="userSpaceOnUse" x1="224.1289" y1="299.0701" x2="215.6889" y2="102.2601" gradientTransform="matrix(1 0 0 -1 0 417.06)">
	<stop  offset="0" style="stop-color:#A45326"/>
	<stop  offset="0.42" style="stop-color:#EFD4D1"/>
	<stop  offset="1" style="stop-color:#F2EAC9"/>
</linearGradient>
<path class="st35" d="M346.2,227.9c0,3.4-2.1,6.5-5.3,7.8c-12.5,4.9-48.9,16-121.6,16c-93,0-123.9-18.3-123.9-18.3
	c-4.2-2.3-2.8-12.8-0.6-22.2c2.1-8.7,4.9-16.6,4.9-16.6s39.4-51.4,131.7-42.4s108.6,43.1,113.5,50.2c0.9,1.6,1.4,3.4,1.5,5.3
	C347.2,214.2,346.2,223.9,346.2,227.9z"/>
<linearGradient id="SVGID_33_" gradientUnits="userSpaceOnUse" x1="161.1392" y1="259.4502" x2="196.6509" y2="259.4502" gradientTransform="matrix(1 0 0 -1 0 417.06)">
	<stop  offset="0" style="stop-color:#000000;stop-opacity:0"/>
	<stop  offset="0.91" style="stop-color:#000000;stop-opacity:0.8"/>
	<stop  offset="1" style="stop-color:#000000"/>
</linearGradient>
<path class="st36" d="M163.7,158.9c-1.2,0.6-2.6,1.4-2.6,2.8c0,0.2,0.1,0.4,0.2,0.5c0.1,0.1,0.3,0.2,0.5,0.2c3.3,0.3,6.7-0.4,10-0.8
	c0.1,0,0.3,0,0.4,0.1c0.2,0.1,0.1,0.4,0.2,0.6c0.1,0.6,1,0.7,1.6,0.6c3.6-0.6,7.2-1.3,10.3-3.2c0.7-0.5,1.5-0.9,2.2-1.3
	c1.5-0.6,3.2-0.2,4.8-0.4c2.1-0.3,3.9-1.5,5-3.3c0.2-0.3,0.3-0.6,0.2-1c-0.1-0.3-0.3-0.5-0.5-0.6c-1-0.5-2.1-0.7-3.2-0.5
	c-6.6,0.4-20.9,2.7-21.2,3.1s-2.3,0.9-2.8,1.1C167.1,157.4,165.4,158.1,163.7,158.9z"/>
<linearGradient id="SVGID_34_" gradientUnits="userSpaceOnUse" x1="198.4024" y1="202.0473" x2="340.5924" y2="329.0273" gradientTransform="matrix(1 0 0 -1 0 417.06)">
	<stop  offset="0" style="stop-color:#000000;stop-opacity:0"/>
	<stop  offset="0.91" style="stop-color:#000000;stop-opacity:0.8"/>
	<stop  offset="1" style="stop-color:#000000"/>
</linearGradient>
<path class="st37" d="M202.9,158.2c4.2,0.7,8.5,0.8,12.8,0.3c0.9-0.2,1.7-0.1,2.5,0.3c1.2,0.7,1.3,2.4,1.5,3.8
	c0.9,4.6,5.1,8,9.6,9.4s9.3,1.1,14.1,1.2c8.2,0.1,16.5,0.9,24.5,2.6c14,3,28,8.5,42.2,6.3c0.5,0,0.9-0.2,1.3-0.4
	c1-0.8,0.5-2.5-0.2-3.5c-3.3-4.7-9-6.8-14.4-8.7c-16.8-5.7-33.8-10.8-51.2-14.2c-8.7-1.7-17.5-2.9-26.4-3.5
	c-7.4-0.5-19.2-2.3-26.1,0.6C194.8,155.6,199.4,157.4,202.9,158.2z"/>
<ellipse transform="matrix(0.2071 -0.9783 0.9783 0.2071 40.529 372.9675)" class="st38" cx="250.3" cy="161.5" rx="2.2" ry="4.3"/>
<ellipse transform="matrix(0.2071 -0.9783 0.9783 0.2071 56.3119 403.8526)" class="st39" cx="277.3" cy="167.2" rx="1.8" ry="3.5"/>
<ellipse class="st40" cx="198.6" cy="157.7" rx="4.3" ry="2.2"/>
<ellipse class="st40" cx="219.7" cy="170.3" rx="4.3" ry="2.2"/>
<ellipse class="st40" cx="288.1" cy="178.1" rx="4.3" ry="2.2"/>
<ellipse transform="matrix(0.9826 -0.1858 0.1858 0.9826 -27.5146 38.4714)" class="st40" cx="191.5" cy="166" rx="3.6" ry="1.8"/>
<ellipse transform="matrix(0.9826 -0.1858 0.1858 0.9826 -29.324 34.717)" class="st40" cx="170.5" cy="173.8" rx="3.6" ry="1.8"/>
<ellipse transform="matrix(0.9605 -0.2783 0.2783 0.9605 -37.2662 55.6591)" class="st40" cx="177.4" cy="159.1" rx="4.3" ry="2.2"/>
<ellipse transform="matrix(0.2071 -0.9783 0.9783 0.2071 39.2929 389.1326)" class="st40" cx="259.7" cy="170.3" rx="1.6" ry="3.2"/>
<ellipse transform="matrix(5.989229e-02 -0.9982 0.9982 5.989229e-02 55.6875 373.9061)" class="st40" cx="226.4" cy="157.4" rx="2.2" ry="4.3"/>
<ellipse transform="matrix(0.9605 -0.2783 0.2783 0.9605 -40.0037 50.2576)" class="st40" cx="157" cy="166" rx="4.3" ry="2.2"/>
<path class="st41" d="M210.6,113.2"/>
<path class="st42" d="M306.1,161.5l-5.5,2.2l-5.8,2.3l-11.1-16.6c0,0-5.9,6.6-29.1,13s-27.9-10.6-27.9-10.6v-46.4
	c3.9-10.2,14.9-8,21.5-5.6c3.3,1.2,5.6,4.1,6,7.6l3.7,30.4l26.5-4.5c5.5-0.9,10.9,2,13.1,7.2L306.1,161.5z"/>
<linearGradient id="SVGID_35_" gradientUnits="userSpaceOnUse" x1="265.0933" y1="291.7496" x2="253.2333" y2="203.0896" gradientTransform="matrix(1 0 0 -1 0 417.06)">
	<stop  offset="0" style="stop-color:#000000;stop-opacity:0"/>
	<stop  offset="0.88" style="stop-color:#000000;stop-opacity:0.8"/>
	<stop  offset="0.97" style="stop-color:#000000"/>
</linearGradient>
<path class="st43" d="M300.7,163.7l-5.8,2.3l-11.1-16.6c0,0-5.9,6.6-29.1,13s-27.9-10.6-27.9-10.6v-43.6c5-4.5,13-2.7,18.3-0.8
	c3.3,1.2,5.6,4.1,6,7.6l3.7,30.4l26.4-4.5c5.5-0.9,10.9,2.1,13.1,7.2L300.7,163.7z"/>
<path class="st1" d="M224.1,151.2c0,0-0.8,5.1,5.4,1.5s28.3-14.9,28.3-14.9l-3.7-30.4c0,0-1.3-10.8-14.1-11
	c-14.3-0.2-14.7,10.7-14.7,10.7S226.2,149.2,224.1,151.2z"/>
<linearGradient id="SVGID_36_" gradientUnits="userSpaceOnUse" x1="247.859" y1="292.6967" x2="264.189" y2="293.6367" gradientTransform="matrix(1 0 0 -1 0 417.06)">
	<stop  offset="0" style="stop-color:#000000;stop-opacity:0"/>
	<stop  offset="0.68" style="stop-color:#000000;stop-opacity:0.55"/>
	<stop  offset="0.88" style="stop-color:#000000;stop-opacity:0.8"/>
	<stop  offset="0.97" style="stop-color:#000000"/>
</linearGradient>
<path class="st44" d="M224.1,151.2c0,0-0.8,5.1,5.4,1.5s28.3-14.9,28.3-14.9l-3.7-30.4c0,0-1.1-11-14.1-11
	c-14.3,0.1-14.7,10.7-14.7,10.7S226.2,149.2,224.1,151.2z"/>
<linearGradient id="SVGID_37_" gradientUnits="userSpaceOnUse" x1="242.31" y1="323.47" x2="252.53" y2="323.47" gradientTransform="matrix(1 0 0 -1 0 438)">
	<stop  offset="0" style="stop-color:#000000;stop-opacity:0"/>
	<stop  offset="0.68" style="stop-color:#000000;stop-opacity:0.55"/>
	<stop  offset="0.88" style="stop-color:#000000;stop-opacity:0.8"/>
	<stop  offset="0.97" style="stop-color:#000000"/>
</linearGradient>
<polygon class="st45" points="242.3,100.4 246,102.5 246.2,101.4 247.5,103.4 246.2,125.2 252.5,129.8 249.2,101 245.4,99.3 "/>
<polygon class="st42" points="245.6,99.8 246.9,100.4 246.9,99.1 245.9,98.5 "/>
<linearGradient id="SVGID_38_" gradientUnits="userSpaceOnUse" x1="261.1813" y1="300.8458" x2="191.4113" y2="278.8358" gradientTransform="matrix(1 0 0 -1 0 417.06)">
	<stop  offset="0" style="stop-color:#000000;stop-opacity:0"/>
	<stop  offset="0.68" style="stop-color:#000000;stop-opacity:0.55"/>
	<stop  offset="0.88" style="stop-color:#000000;stop-opacity:0.8"/>
	<stop  offset="0.97" style="stop-color:#000000"/>
</linearGradient>
<path class="st46" d="M247.8,98.8c0,0,3.7,7.8,3.5,19.6c-0.1,7.4,0.3,14.8,1.2,22.2l5.3-2.7l-3.7-30.4c0,0-1-5.1-4.3-7.8L247.8,98.8
	z"/>
<path class="st42" d="M248.6,103.1c0,0-0.6,12.5,1.2,19.2s8,14.4,8,14.4l6.4,0.1v-2.9c0,0-9.3-9-10.8-15.5
	c-1.6-6.6-3.4-16.2-3.4-16.2L248.6,103.1z"/>
<polygon class="st1" points="246.3,96.4 247.8,98.8 245.7,99.1 "/>
<linearGradient id="SVGID_39_" gradientUnits="userSpaceOnUse" x1="233.7581" y1="319.3549" x2="233.8181" y2="319.2549" gradientTransform="matrix(1 0 0 -1 0 417.06)">
	<stop  offset="0" style="stop-color:#000000;stop-opacity:0"/>
	<stop  offset="0.88" style="stop-color:#000000;stop-opacity:0.8"/>
	<stop  offset="0.97" style="stop-color:#000000"/>
</linearGradient>
<path class="st47" d="M233.9,97.7l-0.2,0.1l0,0L233.9,97.7z"/>
<linearGradient id="SVGID_40_" gradientUnits="userSpaceOnUse" x1="238.1" y1="291.8202" x2="223.27" y2="291.8202" gradientTransform="matrix(1 0 0 -1 0 417.06)">
	<stop  offset="0" style="stop-color:#000000;stop-opacity:0"/>
	<stop  offset="0.68" style="stop-color:#000000;stop-opacity:0.55"/>
	<stop  offset="0.88" style="stop-color:#000000;stop-opacity:0.8"/>
	<stop  offset="0.97" style="stop-color:#000000"/>
</linearGradient>
<path class="st48" d="M247.8,98.8l-1.3,0.2l0,0l-1.3,4.3l-7.4-3.1c-1.4,2.2-1,3.3-1,3.3s0.8,42-1.2,44c-0.1,0.6,0,1.2,0.2,1.8
	c-2.6,1.4-4.9,2.6-6.3,3.5c-6.2,3.6-5.4-1.5-5.4-1.5c2.1-2,1.2-44,1.2-44s0.3-6.5,8.4-9.4l0.2-0.1l0.4-0.2c1.9-0.6,3.8-0.9,5.8-1
	l0.9-0.1c-0.5,0.4-0.9,0.8-1.3,1.3l6.4,0.2l0.3-1.5L247.8,98.8z"/>
<path class="st1" d="M227.8,110.4c-0.2,1.8,0.3,3.6,1.3,5c4,5.7,15,20.7,20.2,20.7c6.4,0,8.2-0.1,12.9-3.2s15.1-18.1,15.1-18.1
	l-4.7-5.4l-17.8,13.3c0,0-11.6-14-12.4-15c0,0-5-7.5-10.4-3.1C228.7,107.4,228,108.9,227.8,110.4z"/>
<linearGradient id="SVGID_41_" gradientUnits="userSpaceOnUse" x1="257.6775" y1="308.3022" x2="231.0975" y2="282.8522" gradientTransform="matrix(1 0 0 -1 0 417.06)">
	<stop  offset="0" style="stop-color:#000000;stop-opacity:0"/>
	<stop  offset="0.68" style="stop-color:#000000;stop-opacity:0.55"/>
	<stop  offset="0.88" style="stop-color:#000000;stop-opacity:0.8"/>
	<stop  offset="0.97" style="stop-color:#000000"/>
</linearGradient>
<path class="st49" d="M227.8,110.4c-0.2,1.8,0.3,3.6,1.3,5c4,5.7,15,20.7,20.2,20.7c6.4,0,8.2-0.1,12.9-3.2s15.1-18.1,15.1-18.1
	l-2.9-3.3l-17.2,16.9c-5.9,4.9-12.4-2.4-16.6-8.8l-8.6-15C228.7,107.4,228,108.9,227.8,110.4z"/>
<path class="st42" d="M254.6,139.5c0,0,38.8,17.1,52.4,27.7l-5,8.7c0,0-41.4-11.8-58.9-12.1s-16.4-9.8-16.4-9.8L254.6,139.5z"/>
<linearGradient id="SVGID_42_" gradientUnits="userSpaceOnUse" x1="270.1407" y1="266.9998" x2="247.6107" y2="205.8997" gradientTransform="matrix(1 0 0 -1 0 417.06)">
	<stop  offset="0" style="stop-color:#000000;stop-opacity:0"/>
	<stop  offset="0.88" style="stop-color:#000000;stop-opacity:0.8"/>
	<stop  offset="0.97" style="stop-color:#000000"/>
</linearGradient>
<path class="st50" d="M241.4,146.3c0,0,33.5,11.4,62.4,26.4l-1.8,3.2c0,0-41.4-11.8-58.9-12.1s-16.4-9.8-16.4-9.8L241.4,146.3z"/>
<linearGradient id="SVGID_43_" gradientUnits="userSpaceOnUse" x1="302.92" y1="265.26" x2="312.21" y2="265.26" gradientTransform="matrix(1 0 0 -1 0 438)">
	<stop  offset="0" style="stop-color:#ECC4D7"/>
	<stop  offset="0.42" style="stop-color:#EFD4D1"/>
	<stop  offset="1" style="stop-color:#F2EAC9"/>
</linearGradient>
<polygon class="st51" points="306.1,168.7 312.2,171.3 309.2,176.8 302.9,174.3 "/>
<linearGradient id="SVGID_44_" gradientUnits="userSpaceOnUse" x1="272.2578" y1="310.2302" x2="286.5578" y2="310.2302" gradientTransform="matrix(1 0 0 -1 0 417.06)">
	<stop  offset="0" style="stop-color:#ECC4D7"/>
	<stop  offset="0.42" style="stop-color:#EFD4D1"/>
	<stop  offset="1" style="stop-color:#F2EAC9"/>
</linearGradient>
<path class="st52" d="M272.6,109.5c0,0-0.8-5.1,0-6.1s2.2,0,2.2,0l5.1-4.6c0,0,2.9-0.2,2.8,1.2s1.4,0.9,2,2s1.7,2.8,1.7,2.8
	c0.1,0.8,0.1,1.6,0,2.4c-0.2,0.4-1.7,2.4-1.8,2.7s-7.3,5-7.3,5L272.6,109.5z"/>
<linearGradient id="SVGID_45_" gradientUnits="userSpaceOnUse" x1="202.7728" y1="325.6347" x2="201.0928" y2="311.1647" gradientTransform="matrix(0.9692 -0.2462 -0.2462 -0.9692 131.0166 441.2955)">
	<stop  offset="0" style="stop-color:#ECC4D7"/>
	<stop  offset="0.42" style="stop-color:#EFD4D1"/>
	<stop  offset="1" style="stop-color:#F2EAC9"/>
</linearGradient>
<path class="st53" d="M256.3,86.6c-0.4,0.4-1,0.5-1.6,0.7c-2,0.8-1.4,2.9-2.7,4.6c-3.3,4.1-9.8-4-10.7-6.1s-3.2-2.5-2.8-4.8
	c0.3-2.4,1.2-4.6,2.6-6.6c1.4-2,3.4-3.4,5.8-4c0.8-0.2,1.6-0.2,2.4-0.1c0.5,0.2,1,0.4,1.5,0.7c2.2,1.5,6,2.5,6.4,5.3
	c0.2,1.3-1.6,4.3-1.5,5.6C255.9,83.2,257.1,85.6,256.3,86.6z"/>
<path class="st42" d="M243.9,84.1c-0.3-0.8-0.8-1.6-1.4-2.3c-0.2-0.3-0.5-0.5-0.9-0.6c-0.5-0.1-0.9,0.2-1.1,0.6
	c-0.2,0.4-0.3,0.9-0.2,1.4c0.1,1,0.4,1.9,0.9,2.8c-1.1,0.2-1.8,1.2-1.7,2.3c0.1,0.4,0.1,1-0.3,1c-0.2,0-0.4-0.1-0.6-0.3
	c-0.5-0.5-0.9-1.2-1.1-1.9c-0.4-1.2-0.4-2.6-1.4-3.3l0.2-8.2c0-0.7,0-1.3,0.2-2c0.4-1.4,1.2-2.7,2.2-3.7c3.8-3.4,9-4.7,13.9-3.4
	c1.5,0.5,3.2,0.8,4.8,0.8c0.5-0.1,1.1-0.1,1.6-0.1c0.3,0.1,0.6,0.2,0.9,0.3c1.8,1,2.5,3.3,1.5,5.2c-0.2,0.4-0.5,0.8-0.9,1.1
	c-0.4,0.3-0.9,0.7-1.1,1.2c-0.1,0.3,0,0.6-0.2,0.9c-0.2,0.3-0.5,0.6-0.8,0.8c-1.1,0.6-2.3,0.7-3.5,0.5c-0.3-0.1-0.5-0.1-0.8,0
	c-0.2,0.1-0.4,0.2-0.5,0.4c-1.1,1-2.9,0.6-4.3,0c-0.6-0.3-1.4-0.6-1.9-0.3c-0.2,0.2-0.4,0.3-0.6,0.5c-0.6,0.4-0.9,0.3-1.3,1
	c-0.3,0.6-0.5,1.2-0.7,1.8c-0.2,0.6-0.3,1.3-0.4,1.9C244.4,82.9,244.1,83.5,243.9,84.1z"/>
<linearGradient id="SVGID_46_" gradientUnits="userSpaceOnUse" x1="301.47" y1="252.965" x2="305.39" y2="252.965" gradientTransform="matrix(1 0 0 -1 0 417.06)">
	<stop  offset="0" style="stop-color:#ECC4D7"/>
	<stop  offset="0.42" style="stop-color:#EFD4D1"/>
	<stop  offset="1" style="stop-color:#F2EAC9"/>
</linearGradient>
<path class="st54" d="M304.4,162.2c-0.2,0.1,1,3.8,1,3.8l-3.9-2.6L304.4,162.2z"/>
<linearGradient id="SVGID_47_" gradientUnits="userSpaceOnUse" x1="215.7638" y1="227.9092" x2="236.0338" y2="78.4092" gradientTransform="matrix(1 0 0 -1 0 417.06)">
	<stop  offset="0" style="stop-color:#000000;stop-opacity:0"/>
	<stop  offset="0.88" style="stop-color:#000000;stop-opacity:0.8"/>
	<stop  offset="0.97" style="stop-color:#000000"/>
</linearGradient>
<path class="st55" d="M346.2,227.9c0,3.4-2.1,6.5-5.3,7.8c-12.5,4.9-48.9,16-121.6,16c-93,0-123.9-18.3-123.9-18.3
	c-4.2-2.3-2.8-12.8-0.6-22.2l0,0l2-7.5c0,0,61.5,18.8,155.6,13.9c81.1-4.2,92.4-8.7,93.9-9.9C347.2,214.2,346.2,223.9,346.2,227.9z"
	/>
<path d="M309.2,176.8v1.4l8.2,3l9.8-15.1c-1.6-1.5-3.8-2.1-5.9-1.6c-3.9,0.8-9.1,6.9-9.1,6.9L309.2,176.8z"/>
<path class="st1" d="M236.3,94.5l10,2l-1.1,5l-11.5-4.1l0.9-2C234.8,94.7,235.6,94.3,236.3,94.5z"/>
<linearGradient id="SVGID_48_" gradientUnits="userSpaceOnUse" x1="241.5702" y1="322.3407" x2="237.4902" y2="313.4707" gradientTransform="matrix(1 0 0 -1 0 417.06)">
	<stop  offset="0" style="stop-color:#000000;stop-opacity:0"/>
	<stop  offset="0.68" style="stop-color:#000000;stop-opacity:0.55"/>
	<stop  offset="0.88" style="stop-color:#000000;stop-opacity:0.8"/>
	<stop  offset="0.97" style="stop-color:#000000"/>
</linearGradient>
<path class="st56" d="M236.3,94.5l10,2l-1.1,5l-11.5-4.1l0.9-2C234.8,94.7,235.6,94.3,236.3,94.5z"/>
<polygon class="st1" points="172.8,144.8 173.5,156.8 185.7,155.4 184.5,142.6 178.1,136.7 "/>
<polygon class="st1" points="189.9,134.7 178.1,136.7 184.5,142.6 185.7,155.4 196.3,154 195.6,140.6 "/>
<linearGradient id="SVGID_49_" gradientUnits="userSpaceOnUse" x1="183.2694" y1="292.4715" x2="169.3794" y2="287.0315" gradientTransform="matrix(1 0 0 -1 0 438)">
	<stop  offset="0" style="stop-color:#FFFFFF;stop-opacity:0"/>
	<stop  offset="0.84" style="stop-color:#FFFFFF;stop-opacity:0.84"/>
	<stop  offset="0.97" style="stop-color:#FFFFFF"/>
</linearGradient>
<polygon class="st57" points="172.8,144.8 173.5,156.8 185.7,155.4 184.5,142.6 178.1,136.7 "/>
<linearGradient id="SVGID_50_" gradientUnits="userSpaceOnUse" x1="185.0577" y1="307.2395" x2="190.4977" y2="283.3995" gradientTransform="matrix(1 0 0 -1 0 438)">
	<stop  offset="0" style="stop-color:#FFFFFF;stop-opacity:0"/>
	<stop  offset="0.84" style="stop-color:#FFFFFF;stop-opacity:0.84"/>
	<stop  offset="0.97" style="stop-color:#FFFFFF"/>
</linearGradient>
<polygon class="st58" points="189.9,134.7 178.1,136.7 184.5,142.6 185.7,155.4 196.3,154 195.6,140.6 "/>
<path class="st42" d="M246.6,100.2l1.9,2.5c0.1,0.2,0.3,0.3,0.6,0.3h0.4c0.4,0,0.8-0.3,0.9-0.7c0-0.1,0-0.1,0-0.2l-0.3-2.7
	c0-0.4-0.4-0.7-0.9-0.7l-1.9,0.1c-0.4,0-0.8,0.4-0.8,0.8C246.4,100,246.5,100.1,246.6,100.2z"/>
<linearGradient id="SVGID_51_" gradientUnits="userSpaceOnUse" x1="248.1203" y1="339.2506" x2="245.6103" y2="340.4507" gradientTransform="matrix(1 0 0 -1 0 438)">
	<stop  offset="0" style="stop-color:#000000;stop-opacity:0"/>
	<stop  offset="0.68" style="stop-color:#000000;stop-opacity:0.55"/>
	<stop  offset="0.88" style="stop-color:#000000;stop-opacity:0.8"/>
	<stop  offset="0.97" style="stop-color:#000000"/>
</linearGradient>
<polygon class="st59" points="245.7,99.1 247.8,98.8 246.3,96.4 "/>
<linearGradient id="SVGID_52_" gradientUnits="userSpaceOnUse" x1="243.1386" y1="333.8029" x2="236.2886" y2="330.5429" gradientTransform="matrix(1 0 0 -1 0 417.06)">
	<stop  offset="0" style="stop-color:#ECC4D7"/>
	<stop  offset="0.42" style="stop-color:#EFD4D1"/>
	<stop  offset="1" style="stop-color:#F2EAC9"/>
</linearGradient>
<path class="st60" d="M243.1,84.5c-0.5-0.3-0.8-0.9-0.6-1.5c0.3-1-1.2-1.1-1.2-0.4s0.7,2.8,1.4,2.6S243.1,84.5,243.1,84.5z"/>
</svg>
